<?xml version="1.0" standalone="no"?>
<!DOCTYPE svg PUBLIC "-//W3C//DTD SVG 20010904//EN"
 "http://www.w3.org/TR/2001/REC-SVG-20010904/DTD/svg10.dtd">
<svg version="1.0" xmlns="http://www.w3.org/2000/svg"
 width="128.000000pt" height="128.000000pt" viewBox="0 0 128.000000 128.000000"
 preserveAspectRatio="xMidYMid meet">
<metadata>
Created by potrace 1.11, written by Peter Selinger 2001-2013
</metadata>
<g transform="translate(0.000000,128.000000) scale(0.100000,-0.100000)"
fill="#000000" stroke="none">
<path d="M0 640 l0 -640 640 0 640 0 0 640 0 640 -640 0 -640 0 0 -640z m1257
9 c-3 -336 -8 -613 -10 -616 -8 -7 -1030 -12 -1139 -5 l-88 5 0 613 0 614 621
0 621 0 -5 -611z"/>
<path d="M413 1212 l-343 -2 0 -23 c-1 -12 -3 -263 -6 -557 -2 -294 -6 -544
-9 -555 -4 -20 0 -20 572 -18 446 2 580 0 591 -10 13 -10 15 -8 9 13 -4 14 -7
281 -7 593 l0 568 -232 -3 c-128 -2 -387 -4 -575 -6z m222 -20 c37 -6 34 -7
-35 -13 -79 -5 -94 -3 -85 12 7 11 65 12 120 1z m306 -2 c20 -11 59 -79 59
-104 0 -28 -153 -42 -183 -17 -12 9 -17 29 -17 67 0 50 1 53 28 57 53 8 94 7
113 -3z m-541 -29 c0 -35 -49 -81 -86 -81 -26 0 -29 7 -15 43 14 35 51 67 78
67 19 0 23 -5 23 -29z m380 -17 c0 -27 -23 -94 -32 -94 -13 0 -10 84 4 98 17
17 28 15 28 -4z m-312 -3 c8 -4 12 -19 10 -32 -2 -19 -9 -24 -33 -24 -36 0
-47 31 -19 52 21 15 24 16 42 4z m236 -84 l0 -92 -91 -3 -90 -3 -7 47 c-3 26
-6 69 -6 95 l0 49 98 0 97 0 -1 -93z m-416 -29 c-2 -27 -7 -33 -25 -32 -13 0
-59 1 -103 2 l-80 2 0 30 0 30 106 0 105 0 -3 -32z m889 17 c8 -24 -24 -45
-82 -54 -33 -5 -63 -6 -66 -3 -4 4 -9 22 -13 40 l-6 33 82 -3 c45 -2 83 -8 85
-13z m-809 -39 c17 -1 22 -7 22 -28 0 -39 -22 -35 -56 9 -23 30 -24 35 -8 28
10 -4 29 -9 42 -9z m598 -65 c-14 -25 -23 -30 -70 -36 -70 -9 -91 -4 -91 20 0
16 9 21 45 26 25 3 63 15 85 27 47 24 56 12 31 -37z m-738 33 c61 -7 61 -7 79
-50 17 -42 55 -74 88 -74 9 0 27 12 40 28 l24 27 1 -28 c0 -16 4 -26 9 -23 12
8 21 -18 11 -34 -6 -9 -43 -11 -166 -6 -238 10 -225 8 -222 31 3 18 13 20 100
25 53 3 99 8 103 12 16 16 -34 25 -100 17 -120 -14 -115 -15 -115 36 l0 45 44
0 c23 0 71 -3 104 -6z m912 -38 l0 -43 -71 -7 c-40 -3 -74 -5 -76 -2 -2 2 6
20 18 40 15 26 28 36 47 37 15 0 36 4 47 9 33 14 35 12 35 -34z m-491 -6 c62
0 64 -1 47 -19 -14 -16 -27 -18 -89 -13 -40 2 -74 6 -76 8 -2 2 -1 11 3 20 4
11 13 14 29 10 12 -3 51 -6 86 -6z m491 -72 c0 -13 -3 -33 -6 -45 -6 -23 -8
-23 -188 -23 -99 0 -186 4 -192 8 -7 4 -14 18 -15 32 -4 28 -6 28 89 9 52 -11
72 -10 110 1 45 12 163 37 190 39 6 1 12 -9 12 -21z m-539 -113 c3 -69 9 -119
16 -126 9 -9 10 -1 6 31 -5 33 -3 41 7 35 9 -5 11 -27 8 -74 -7 -89 -19 -111
-63 -111 l-35 0 0 180 0 180 29 0 29 0 3 -115z m-93 -57 l-3 -53 -70 1 c-43 1
-97 11 -140 25 -47 16 -94 23 -142 24 -59 0 -73 3 -73 16 0 36 20 39 228 39
l203 0 -3 -52z m662 47 c0 -3 -4 -13 -9 -23 -5 -9 -14 -30 -20 -45 -8 -21 -16
-27 -28 -23 -9 4 -66 9 -127 12 -119 5 -223 21 -243 37 -7 5 -13 18 -13 28 0
18 11 19 220 19 121 0 220 -2 220 -5z m-863 -98 c18 -9 40 -17 49 -17 10 0 14
-3 10 -7 -7 -7 -269 -54 -274 -48 -7 6 -14 75 -10 87 8 19 183 7 225 -15z
m721 2 c53 -6 102 -14 107 -19 15 -13 17 -60 2 -65 -6 -2 -99 -5 -205 -8
l-194 -4 7 33 c4 25 1 35 -11 42 -57 32 99 43 294 21z m-518 -96 c0 -32 -5
-65 -10 -73 -8 -12 -45 -16 -210 -18 l-200 -4 0 46 c0 43 1 45 32 50 112 16
182 28 248 40 41 8 90 15 108 15 l32 1 0 -57z m639 -29 c11 -3 11 -7 1 -19
-10 -12 -46 -15 -197 -15 -174 0 -223 7 -223 30 0 15 373 19 419 4z m-460 -59
c13 -26 12 -30 -5 -40 -10 -5 -53 -43 -95 -82 -41 -40 -79 -73 -83 -73 -11 0
4 42 23 64 9 10 45 41 80 67 l64 49 -71 0 c-71 0 -93 10 -73 34 7 8 34 13 78
12 65 -1 69 -3 82 -31z m-105 -72 c-33 -26 -49 -25 -49 3 0 13 9 21 30 25 45
8 52 -1 19 -28z m-79 6 c12 -19 -17 -39 -66 -45 -55 -7 -56 -19 -3 -28 33 -7
35 -9 29 -34 -4 -15 -8 -28 -10 -30 -10 -10 -146 -31 -194 -30 -31 1 -82 -1
-113 -6 l-58 -7 0 38 c0 21 -3 48 -6 61 -6 21 -3 22 42 22 40 1 46 3 31 11
-11 6 -32 8 -48 5 -26 -5 -29 -3 -29 22 l0 27 210 2 c132 2 212 -1 215 -8z
m655 -1 c-1 -35 -16 -38 -210 -45 -180 -6 -194 -5 -207 12 -31 44 -25 45 202
45 165 0 215 -3 215 -12z m-77 -66 c37 -1 67 -6 67 -11 0 -6 -59 -10 -137 -9
-94 0 -156 -5 -193 -15 -30 -9 -56 -15 -57 -14 0 1 -3 11 -5 22 -3 18 4 20 72
25 71 5 95 5 253 2z m-9 -47 c38 -7 73 -18 79 -24 25 -25 -9 -31 -189 -31
-157 0 -186 2 -191 15 -3 9 -3 18 0 21 9 9 192 41 212 37 11 -2 51 -10 89 -18z
m-484 -29 c0 -34 -40 -96 -62 -96 -20 0 0 94 25 112 31 25 37 22 37 -16z m134
25 c9 -13 -205 -191 -230 -191 -14 0 39 54 122 124 91 78 99 82 108 67z m-395
-78 c-13 -16 -12 -16 14 0 16 10 34 16 40 13 7 -2 4 -5 -5 -5 -11 -1 -15 -6
-12 -16 7 -18 18 -17 -144 -19 -97 -1 -132 2 -132 11 0 14 39 22 130 26 36 2
78 4 94 5 26 2 27 0 15 -15z m819 -20 c3 -10 -26 -13 -124 -13 -80 0 -124 4
-118 9 20 21 235 24 242 4z m-535 -90 c-13 -2 -33 -2 -45 0 -13 2 -3 4 22 4
25 0 35 -2 23 -4z m74 1 c-3 -3 -12 -4 -19 -1 -8 3 -5 6 6 6 11 1 17 -2 13 -5z"/>
<path d="M595 1060 c-23 -24 -26 -32 -15 -45 16 -19 46 -20 53 -1 4 9 0 12
-13 9 -32 -9 -35 19 -4 44 16 12 24 23 18 23 -5 0 -23 -13 -39 -30z"/>
<path d="M641 1054 c0 -11 3 -14 6 -6 3 7 2 16 -1 19 -3 4 -6 -2 -5 -13z"/>
<path d="M265 340 l-50 -7 50 0 c28 -1 61 3 75 7 l25 8 -25 -1 c-14 0 -47 -3
-75 -7z"/>
</g>
</svg>
